<?xml version="1.0" encoding="UTF-8"?>
<svg width="240" height="240" viewBox="0 0 240 240" fill="none" xmlns="http://www.w3.org/2000/svg">
  <!-- Sleeping ZZZs -->
  <text x="180" y="60" font-family="Arial" font-size="24" fill="#94A3B8">z</text>
  <text x="200" y="40" font-family="Arial" font-size="20" fill="#94A3B8">z</text>
  <text x="215" y="25" font-family="Arial" font-size="16" fill="#94A3B8">z</text>
  
  <!-- Fox Body -->
  <path d="M120 180c-33.137 0-60-26.863-60-60s26.863-60 60-60 60 26.863 60 60-26.863 60-60 60z" fill="#FF6B35"/>
  
  <!-- Fox Face -->
  <path d="M95 115c0-8.284 6.716-15 15-15 8.284 0 15 6.716 15 15" stroke="#FFF" stroke-width="3" stroke-linecap="round"/>
  
  <!-- Fox Ears -->
  <path d="M85 90l-15-15M155 90l15-15" stroke="#FF5419" stroke-width="3" stroke-linecap="round"/>
  
  <!-- Closed Eyes -->
  <path d="M105 110c0-2.761 2.239-5 5-5s5 2.239 5 5M125 110c0-2.761 2.239-5 5-5s5 2.239 5 5" stroke="#FFF" stroke-width="2" stroke-linecap="round"/>
  
  <!-- Fox Tail -->
  <path d="M170 120c10-5 20-15 25-25" stroke="#FF5419" stroke-width="8" stroke-linecap="round"/>
  
  <!-- Snoozing Effect -->
  <circle cx="140" cy="95" r="3" fill="#FFF"/>
  <circle cx="100" cy="95" r="3" fill="#FFF"/>
</svg> 